<mxfile host="app.diagrams.net" modified="2023-12-14T11:34:12.395Z" agent="Mozilla/5.0 (Windows NT 10.0; Win64; x64) AppleWebKit/537.36 (KHTML, like Gecko) Chrome/120.0.0.0 Safari/537.36" etag="ZqcpWxc6RXAVUjTreldW" version="22.1.8" type="github">
  <diagram name="第 1 页" id="oFDXwGm1EIwN1BxMcIT6">
    <mxGraphModel dx="2670" dy="763" grid="1" gridSize="10" guides="1" tooltips="1" connect="1" arrows="1" fold="1" page="1" pageScale="1" pageWidth="827" pageHeight="1169" math="0" shadow="0">
      <root>
        <mxCell id="0" />
        <mxCell id="1" parent="0" />
        <mxCell id="E47SXalV4aJKUaQuw68p-1" value="CAPI" style="shape=umlLifeline;perimeter=lifelinePerimeter;whiteSpace=wrap;html=1;container=1;dropTarget=0;collapsible=0;recursiveResize=0;outlineConnect=0;portConstraint=eastwest;newEdgeStyle={&quot;curved&quot;:0,&quot;rounded&quot;:0};" vertex="1" parent="1">
          <mxGeometry x="60" y="40" width="100" height="300" as="geometry" />
        </mxCell>
        <mxCell id="E47SXalV4aJKUaQuw68p-2" value="咖啡库券系统" style="shape=umlLifeline;perimeter=lifelinePerimeter;whiteSpace=wrap;html=1;container=1;dropTarget=0;collapsible=0;recursiveResize=0;outlineConnect=0;portConstraint=eastwest;newEdgeStyle={&quot;curved&quot;:0,&quot;rounded&quot;:0};" vertex="1" parent="1">
          <mxGeometry x="230" y="40" width="100" height="300" as="geometry" />
        </mxCell>
        <mxCell id="E47SXalV4aJKUaQuw68p-3" value="咖啡库券冗余系统" style="shape=umlLifeline;perimeter=lifelinePerimeter;whiteSpace=wrap;html=1;container=1;dropTarget=0;collapsible=0;recursiveResize=0;outlineConnect=0;portConstraint=eastwest;newEdgeStyle={&quot;curved&quot;:0,&quot;rounded&quot;:0};" vertex="1" parent="1">
          <mxGeometry x="400" y="40" width="100" height="300" as="geometry" />
        </mxCell>
        <mxCell id="E47SXalV4aJKUaQuw68p-5" style="edgeStyle=orthogonalEdgeStyle;rounded=0;orthogonalLoop=1;jettySize=auto;html=1;" edge="1" parent="1">
          <mxGeometry relative="1" as="geometry">
            <mxPoint x="30" y="80" as="targetPoint" />
            <mxPoint x="-50" y="80" as="sourcePoint" />
          </mxGeometry>
        </mxCell>
        <mxCell id="E47SXalV4aJKUaQuw68p-4" value="Actor" style="shape=umlActor;verticalLabelPosition=bottom;verticalAlign=top;html=1;" vertex="1" parent="1">
          <mxGeometry x="-80" y="50" width="30" height="60" as="geometry" />
        </mxCell>
        <mxCell id="E47SXalV4aJKUaQuw68p-6" value="购物车" style="text;html=1;align=center;verticalAlign=middle;resizable=0;points=[];autosize=1;strokeColor=none;fillColor=none;" vertex="1" parent="1">
          <mxGeometry x="-40" y="58" width="60" height="30" as="geometry" />
        </mxCell>
        <mxCell id="E47SXalV4aJKUaQuw68p-40" style="edgeStyle=orthogonalEdgeStyle;rounded=0;orthogonalLoop=1;jettySize=auto;html=1;exitX=0.5;exitY=1;exitDx=0;exitDy=0;entryX=0.5;entryY=0;entryDx=0;entryDy=0;" edge="1" parent="1" source="E47SXalV4aJKUaQuw68p-7" target="E47SXalV4aJKUaQuw68p-8">
          <mxGeometry relative="1" as="geometry" />
        </mxCell>
        <mxCell id="E47SXalV4aJKUaQuw68p-7" value="" style="ellipse;html=1;shape=endState;fillColor=#000000;strokeColor=#ff0000;" vertex="1" parent="1">
          <mxGeometry x="-125" y="370" width="30" height="30" as="geometry" />
        </mxCell>
        <mxCell id="E47SXalV4aJKUaQuw68p-10" value="" style="edgeStyle=orthogonalEdgeStyle;rounded=0;orthogonalLoop=1;jettySize=auto;html=1;" edge="1" parent="1" source="E47SXalV4aJKUaQuw68p-8" target="E47SXalV4aJKUaQuw68p-9">
          <mxGeometry relative="1" as="geometry" />
        </mxCell>
        <mxCell id="E47SXalV4aJKUaQuw68p-8" value="购物车/订单预览/订单创建/订单预创建" style="rounded=1;whiteSpace=wrap;html=1;" vertex="1" parent="1">
          <mxGeometry x="-170" y="440" width="120" height="60" as="geometry" />
        </mxCell>
        <mxCell id="E47SXalV4aJKUaQuw68p-14" value="" style="edgeStyle=orthogonalEdgeStyle;rounded=0;orthogonalLoop=1;jettySize=auto;html=1;" edge="1" parent="1" source="E47SXalV4aJKUaQuw68p-9" target="E47SXalV4aJKUaQuw68p-13">
          <mxGeometry relative="1" as="geometry" />
        </mxCell>
        <mxCell id="E47SXalV4aJKUaQuw68p-9" value="构建算价入参" style="rounded=1;whiteSpace=wrap;html=1;" vertex="1" parent="1">
          <mxGeometry x="-170" y="580" width="120" height="60" as="geometry" />
        </mxCell>
        <mxCell id="E47SXalV4aJKUaQuw68p-16" value="" style="edgeStyle=orthogonalEdgeStyle;rounded=0;orthogonalLoop=1;jettySize=auto;html=1;" edge="1" parent="1" source="E47SXalV4aJKUaQuw68p-13" target="E47SXalV4aJKUaQuw68p-15">
          <mxGeometry relative="1" as="geometry" />
        </mxCell>
        <mxCell id="E47SXalV4aJKUaQuw68p-13" value="获取咖啡库券信息" style="rounded=1;whiteSpace=wrap;html=1;" vertex="1" parent="1">
          <mxGeometry x="-170" y="720" width="120" height="60" as="geometry" />
        </mxCell>
        <mxCell id="E47SXalV4aJKUaQuw68p-20" value="" style="edgeStyle=orthogonalEdgeStyle;rounded=0;orthogonalLoop=1;jettySize=auto;html=1;" edge="1" parent="1" source="E47SXalV4aJKUaQuw68p-15" target="E47SXalV4aJKUaQuw68p-19">
          <mxGeometry relative="1" as="geometry" />
        </mxCell>
        <mxCell id="E47SXalV4aJKUaQuw68p-21" value="开" style="edgeLabel;html=1;align=center;verticalAlign=middle;resizable=0;points=[];" vertex="1" connectable="0" parent="E47SXalV4aJKUaQuw68p-20">
          <mxGeometry x="-0.4067" y="-1" relative="1" as="geometry">
            <mxPoint as="offset" />
          </mxGeometry>
        </mxCell>
        <mxCell id="E47SXalV4aJKUaQuw68p-23" value="" style="edgeStyle=orthogonalEdgeStyle;rounded=0;orthogonalLoop=1;jettySize=auto;html=1;" edge="1" parent="1" source="E47SXalV4aJKUaQuw68p-15" target="E47SXalV4aJKUaQuw68p-22">
          <mxGeometry relative="1" as="geometry" />
        </mxCell>
        <mxCell id="E47SXalV4aJKUaQuw68p-24" value="关" style="edgeLabel;html=1;align=center;verticalAlign=middle;resizable=0;points=[];" vertex="1" connectable="0" parent="E47SXalV4aJKUaQuw68p-23">
          <mxGeometry x="-0.3156" relative="1" as="geometry">
            <mxPoint as="offset" />
          </mxGeometry>
        </mxCell>
        <mxCell id="E47SXalV4aJKUaQuw68p-15" value="判断降级开关" style="rhombus;whiteSpace=wrap;html=1;rounded=1;" vertex="1" parent="1">
          <mxGeometry x="-150" y="850" width="80" height="80" as="geometry" />
        </mxCell>
        <mxCell id="E47SXalV4aJKUaQuw68p-39" style="edgeStyle=orthogonalEdgeStyle;rounded=0;orthogonalLoop=1;jettySize=auto;html=1;exitX=1;exitY=0.5;exitDx=0;exitDy=0;entryX=0.5;entryY=0;entryDx=0;entryDy=0;" edge="1" parent="1" source="E47SXalV4aJKUaQuw68p-19" target="E47SXalV4aJKUaQuw68p-31">
          <mxGeometry relative="1" as="geometry" />
        </mxCell>
        <mxCell id="E47SXalV4aJKUaQuw68p-19" value="调用冗余系统接口" style="whiteSpace=wrap;html=1;rounded=1;" vertex="1" parent="1">
          <mxGeometry x="-10" y="860" width="120" height="60" as="geometry" />
        </mxCell>
        <mxCell id="E47SXalV4aJKUaQuw68p-26" value="" style="edgeStyle=orthogonalEdgeStyle;rounded=0;orthogonalLoop=1;jettySize=auto;html=1;" edge="1" parent="1" source="E47SXalV4aJKUaQuw68p-22" target="E47SXalV4aJKUaQuw68p-25">
          <mxGeometry relative="1" as="geometry" />
        </mxCell>
        <mxCell id="E47SXalV4aJKUaQuw68p-22" value="调用咖啡库券系统" style="whiteSpace=wrap;html=1;rounded=1;" vertex="1" parent="1">
          <mxGeometry x="-170" y="990" width="120" height="60" as="geometry" />
        </mxCell>
        <mxCell id="E47SXalV4aJKUaQuw68p-27" style="edgeStyle=orthogonalEdgeStyle;rounded=0;orthogonalLoop=1;jettySize=auto;html=1;exitX=0.5;exitY=0;exitDx=0;exitDy=0;entryX=0.5;entryY=1;entryDx=0;entryDy=0;" edge="1" parent="1" source="E47SXalV4aJKUaQuw68p-25" target="E47SXalV4aJKUaQuw68p-19">
          <mxGeometry relative="1" as="geometry" />
        </mxCell>
        <mxCell id="E47SXalV4aJKUaQuw68p-28" value="异常" style="edgeLabel;html=1;align=center;verticalAlign=middle;resizable=0;points=[];" vertex="1" connectable="0" parent="E47SXalV4aJKUaQuw68p-27">
          <mxGeometry x="-0.18" y="1" relative="1" as="geometry">
            <mxPoint as="offset" />
          </mxGeometry>
        </mxCell>
        <mxCell id="E47SXalV4aJKUaQuw68p-32" value="" style="edgeStyle=orthogonalEdgeStyle;rounded=0;orthogonalLoop=1;jettySize=auto;html=1;" edge="1" parent="1" source="E47SXalV4aJKUaQuw68p-25" target="E47SXalV4aJKUaQuw68p-31">
          <mxGeometry relative="1" as="geometry" />
        </mxCell>
        <mxCell id="E47SXalV4aJKUaQuw68p-33" value="正常" style="edgeLabel;html=1;align=center;verticalAlign=middle;resizable=0;points=[];" vertex="1" connectable="0" parent="E47SXalV4aJKUaQuw68p-32">
          <mxGeometry x="-0.24" relative="1" as="geometry">
            <mxPoint as="offset" />
          </mxGeometry>
        </mxCell>
        <mxCell id="E47SXalV4aJKUaQuw68p-25" value="是否发送异常" style="rhombus;whiteSpace=wrap;html=1;rounded=1;" vertex="1" parent="1">
          <mxGeometry x="10" y="980" width="80" height="80" as="geometry" />
        </mxCell>
        <mxCell id="E47SXalV4aJKUaQuw68p-29" value="" style="ellipse;fillColor=strokeColor;html=1;" vertex="1" parent="1">
          <mxGeometry x="195" y="1240" width="30" height="30" as="geometry" />
        </mxCell>
        <mxCell id="E47SXalV4aJKUaQuw68p-37" value="" style="edgeStyle=orthogonalEdgeStyle;rounded=0;orthogonalLoop=1;jettySize=auto;html=1;" edge="1" parent="1" source="E47SXalV4aJKUaQuw68p-31" target="E47SXalV4aJKUaQuw68p-36">
          <mxGeometry relative="1" as="geometry" />
        </mxCell>
        <mxCell id="E47SXalV4aJKUaQuw68p-31" value="封装咖啡库券信息" style="whiteSpace=wrap;html=1;rounded=1;" vertex="1" parent="1">
          <mxGeometry x="150" y="990" width="120" height="60" as="geometry" />
        </mxCell>
        <mxCell id="E47SXalV4aJKUaQuw68p-38" style="edgeStyle=orthogonalEdgeStyle;rounded=0;orthogonalLoop=1;jettySize=auto;html=1;exitX=0.5;exitY=1;exitDx=0;exitDy=0;" edge="1" parent="1" source="E47SXalV4aJKUaQuw68p-36" target="E47SXalV4aJKUaQuw68p-29">
          <mxGeometry relative="1" as="geometry" />
        </mxCell>
        <mxCell id="E47SXalV4aJKUaQuw68p-36" value="调用算价" style="whiteSpace=wrap;html=1;rounded=1;" vertex="1" parent="1">
          <mxGeometry x="150" y="1130" width="120" height="60" as="geometry" />
        </mxCell>
      </root>
    </mxGraphModel>
  </diagram>
</mxfile>
